<?xml version="1.0" encoding="UTF-8"?>
<svg width="614px" height="361px" viewBox="0 0 614 361" version="1.1" xmlns="http://www.w3.org/2000/svg" xmlns:xlink="http://www.w3.org/1999/xlink">
    <!-- Generator: Sketch 48.1 (47250) - http://www.bohemiancoding.com/sketch -->
    <title>AIDA SERVICE</title>
    <desc>Created with Sketch.</desc>
    <defs></defs>
    <g id="Custom-Preset" stroke="none" stroke-width="1" fill="none" fill-rule="evenodd" transform="translate(-77.000000, -203.000000)">
        <g id="AIDA-SERVICE" transform="translate(77.000000, 203.000000)" fill="#FFFFFF">
            <path d="M246.374252,360.018905 L0,360.018905 L181.715191,0.0180099502 L323.781466,280.162786 L501.067214,280.162786 C517.866686,279.946667 526.347449,269.789055 526.023343,249.095622 C525.591202,234.291443 517.974721,223.917711 501.067214,222.837114 L382.930733,222.729055 C338.258182,220.243682 311.411437,198.307562 291.695015,168.537114 C272.410733,135.632935 273.166979,102.404577 284.348622,69.0141294 C303.47085,27.3030846 336.745689,4.55651741 377.258886,0.882487562 L536.232669,0.342189055 L536.232669,85.3851741 L388.548563,85.3851741 C377.312903,85.4932338 363.322346,94.3541294 363.592434,111.643682 C363.214311,127.150249 375.854428,138.118308 388.980704,137.902189 L501.067214,137.848159 C565.078065,137.68607 616.556833,192.580398 613.423812,253.850249 C611.425161,314.90398 561.999062,360.937413 497.610088,360.397114 L276.3,360.397114 L181.823226,175.560995 L129.804282,280.000697 L207.427566,280.000697 L246.374252,360.018905 Z" id="Shape"></path>
        </g>
    </g>
</svg>